<svg width="143" height="69" viewBox="0 0 143 69" fill="none" xmlns="http://www.w3.org/2000/svg">
<path d="M6.70461 38.49C6.23794 38.0233 5.95794 37.6733 5.86461 37.44C5.77128 37.2067 5.72461 36.7167 5.72461 35.97V32.75C5.72461 32.0033 5.77128 31.5133 5.86461 31.28C5.95794 31.0467 6.23794 30.6967 6.70461 30.23L34.3546 1.46C34.9613 0.806665 35.3346 0.503331 35.4746 0.549997C35.6146 0.596663 35.6846 1.08666 35.6846 2.02V8.67C35.6846 9.13666 35.6613 9.51 35.6146 9.79C35.6146 10.07 35.5679 10.3033 35.4746 10.49C35.4279 10.6767 35.3113 10.8867 35.1246 11.12C34.9379 11.3067 34.7046 11.5633 34.4246 11.89L14.0546 33.17C13.6813 33.5433 13.4946 33.87 13.4946 34.15C13.5413 34.43 13.7746 34.8033 14.1946 35.27L34.4246 56.83C34.7513 57.2033 34.9846 57.4833 35.1246 57.67C35.3113 57.8567 35.4279 58.0667 35.4746 58.3C35.5679 58.4867 35.6146 58.72 35.6146 59C35.6613 59.2333 35.6846 59.5833 35.6846 60.05V66.7C35.6846 67.6333 35.6146 68.1233 35.4746 68.17C35.3346 68.2167 34.9613 67.9133 34.3546 67.26L6.70461 38.49ZM66.565 63.13C66.3783 63.55 66.145 63.8067 65.865 63.9C65.6317 64.04 65.3283 64.11 64.955 64.11H59.915C59.4017 64.11 59.005 63.9933 58.725 63.76C58.4917 63.5733 58.4683 63.2 58.655 62.64L76.785 5.45C76.9717 4.93666 77.345 4.68 77.905 4.68H83.435C84.5083 4.68 84.905 5.14666 84.625 6.08L66.565 63.13ZM109.284 67.26C108.677 67.9133 108.304 68.2167 108.164 68.17C108.024 68.1233 107.954 67.6333 107.954 66.7V60.05C107.954 59.5833 107.954 59.21 107.954 58.93C108.001 58.65 108.047 58.4167 108.094 58.23C108.187 58.0433 108.327 57.8567 108.514 57.67C108.701 57.4367 108.934 57.1567 109.214 56.83L129.444 35.27C129.864 34.8033 130.074 34.43 130.074 34.15C130.121 33.87 129.957 33.5433 129.584 33.17L109.214 11.89C108.887 11.5633 108.631 11.3067 108.444 11.12C108.304 10.8867 108.187 10.6767 108.094 10.49C108.047 10.2567 108.001 10.0233 107.954 9.79C107.954 9.51 107.954 9.13666 107.954 8.67V2.02C107.954 1.08666 108.024 0.596663 108.164 0.549997C108.304 0.503331 108.677 0.806665 109.284 1.46L136.934 30.23C137.401 30.6967 137.681 31.0467 137.774 31.28C137.867 31.5133 137.914 32.0033 137.914 32.75V35.97C137.914 36.7167 137.867 37.2067 137.774 37.44C137.681 37.6733 137.401 38.0233 136.934 38.49L109.284 67.26Z" fill="#FF8A1F"/>
</svg>
