<svg width="22" height="22" viewBox="0 0 22 22" fill="none" xmlns="http://www.w3.org/2000/svg">
<g clip-path="url(#clip0_185_1008)">
<path d="M16.9044 0H5.02562C3.69319 0.00145119 2.41575 0.531401 1.47357 1.47357C0.531401 2.41575 0.00145119 3.69319 0 5.02562L0 12.3356C0.00145119 13.6681 0.531401 14.9455 1.47357 15.8877C2.41575 16.8298 3.69319 17.3598 5.02562 17.3612H9.59437V19.1887H7.31C6.94649 19.1887 6.59786 19.3331 6.34082 19.5902C6.08378 19.8472 5.93937 20.1959 5.93937 20.5594C5.93937 20.9229 6.08378 21.2715 6.34082 21.5285C6.59786 21.7856 6.94649 21.93 7.31 21.93H14.62C14.9835 21.93 15.3321 21.7856 15.5892 21.5285C15.8462 21.2715 15.9906 20.9229 15.9906 20.5594C15.9906 20.1959 15.8462 19.8472 15.5892 19.5902C15.3321 19.3331 14.9835 19.1887 14.62 19.1887H12.3356V17.3612H16.9044C18.2368 17.3598 19.5142 16.8298 20.4564 15.8877C21.3986 14.9455 21.9285 13.6681 21.93 12.3356V5.02562C21.9285 3.69319 21.3986 2.41575 20.4564 1.47357C19.5142 0.531401 18.2368 0.00145119 16.9044 0ZM5.02562 2.74125H16.9044C17.5102 2.74125 18.0913 2.98192 18.5197 3.41033C18.9481 3.83873 19.1887 4.41977 19.1887 5.02562V11.8787H2.74125V5.02562C2.74125 4.41977 2.98192 3.83873 3.41033 3.41033C3.83873 2.98192 4.41977 2.74125 5.02562 2.74125Z" fill="#4B5056"/>
</g>
<defs>
<clipPath id="clip0_185_1008">
<rect width="21.93" height="21.93" fill="white"/>
</clipPath>
</defs>
</svg>
