<svg width="58" height="72" viewBox="0 0 58 72" fill="none" xmlns="http://www.w3.org/2000/svg">
<path d="M35.6654 2.66699H8.9987C7.23059 2.66699 5.53489 3.36937 4.28465 4.61961C3.03441 5.86986 2.33203 7.56555 2.33203 9.33366V62.667C2.33203 64.4351 3.03441 66.1308 4.28465 67.381C5.53489 68.6313 7.23059 69.3337 8.9987 69.3337H48.9987C50.7668 69.3337 52.4625 68.6313 53.7127 67.381C54.963 66.1308 55.6654 64.4351 55.6654 62.667V22.667M35.6654 2.66699L55.6654 22.667M35.6654 2.66699V22.667H55.6654M42.332 39.3337H15.6654M42.332 52.667H15.6654M22.332 26.0003H15.6654" stroke="#FF8A1F" stroke-width="4" stroke-linecap="round" stroke-linejoin="round"/>
</svg>
