<svg width="24" height="20" viewBox="0 0 24 20" fill="none" xmlns="http://www.w3.org/2000/svg">
<path d="M12.4583 10.391H13.9122C14.7702 10.391 15.575 10.1061 16.1809 9.58882L22.329 4.3397C22.7626 3.97029 23 3.4788 23 2.956C23 2.4332 22.7617 1.9417 22.329 1.5723C21.4352 0.809233 19.9814 0.809233 19.0886 1.5723L12.9405 6.82143C12.3438 7.33092 12.0009 8.03764 12.0009 8.75845V9.99971C12.0009 10.2157 12.2053 10.391 12.4583 10.391ZM12.9167 8.75845C12.9167 8.24348 13.1614 7.73946 13.5877 7.37475L19.7358 2.12562C20.2711 1.66778 21.1447 1.66778 21.68 2.12562C21.9394 2.34711 22.0824 2.64216 22.0824 2.956C22.0824 3.26983 21.9394 3.56411 21.68 3.78637L15.5319 9.0355C15.0992 9.4049 14.5236 9.60839 13.9113 9.60839H12.9157L12.9167 8.75845ZM12 13.5216C12 13.0895 12.4107 12.7389 12.9167 12.7389C13.4227 12.7389 13.8333 13.0895 13.8333 13.5216C13.8333 13.9536 13.4227 14.3042 12.9167 14.3042C12.4107 14.3042 12 13.9536 12 13.5216ZM5.58333 12.7389C6.08933 12.7389 6.5 13.0895 6.5 13.5216C6.5 13.9536 6.08933 14.3042 5.58333 14.3042C5.07733 14.3042 4.66667 13.9536 4.66667 13.5216C4.66667 13.0895 5.07733 12.7389 5.58333 12.7389ZM10.1667 13.5216C10.1667 13.9536 9.756 14.3042 9.25 14.3042C8.744 14.3042 8.33333 13.9536 8.33333 13.5216C8.33333 13.0895 8.744 12.7389 9.25 12.7389C9.756 12.7389 10.1667 13.0895 10.1667 13.5216ZM23 10.7823V15.4781C23 17.4199 21.1493 19 18.875 19H5.125C2.85075 19 1 17.4199 1 15.4781V10.7823C1 8.84063 2.85075 7.26049 5.125 7.26049H9.70833C9.96133 7.26049 10.1667 7.4358 10.1667 7.6518C10.1667 7.86781 9.96133 8.04312 9.70833 8.04312H5.125C3.35583 8.04312 1.91667 9.27186 1.91667 10.7823V15.4781C1.91667 16.9886 3.35583 18.2174 5.125 18.2174H18.875C20.6442 18.2174 22.0833 16.9886 22.0833 15.4781V10.7823C22.0833 9.80718 21.4682 8.89776 20.4792 8.40939C20.2601 8.30139 20.1849 8.0619 20.3114 7.87485C20.4379 7.68781 20.7203 7.62441 20.9375 7.73242C22.2098 8.36009 23 9.52934 23 10.7823Z" fill="white" stroke="white" stroke-width="0.8"/>
</svg>
