<svg width="25" height="24" viewBox="0 0 25 24" fill="none" xmlns="http://www.w3.org/2000/svg">
<rect width="25" height="24" fill="#1E1E1E"/>
<path d="M22.2421 5.27178L18.7272 1.75693C17.5943 0.623974 16.0873 0 14.4854 0H9.5146C7.91267 0 6.40573 0.623974 5.27178 1.75693L1.75693 5.27178C0.623974 6.40573 0 7.91267 0 9.5146V14.4854C0 16.0873 0.623974 17.5943 1.75693 18.7282L5.27178 22.2431C6.40573 23.376 7.91267 24 9.5146 24H14.4854C16.0883 24 17.5943 23.376 18.7272 22.2431L22.2421 18.7292C23.376 17.5963 24 16.0893 24 14.4864V9.5156C24 7.91267 23.376 6.40473 22.2421 5.27178ZM16.4393 15.0604C16.8303 15.4514 16.8303 16.0833 16.4393 16.4743C16.2443 16.6693 15.9883 16.7673 15.7323 16.7673C15.4764 16.7673 15.2204 16.6693 15.0254 16.4743L11.9825 13.4314L8.93963 16.4743C8.74464 16.6693 8.48865 16.7673 8.23266 16.7673C7.97667 16.7673 7.72068 16.6693 7.52569 16.4743C7.1347 16.0833 7.1347 15.4514 7.52569 15.0604L10.5686 12.0175L7.52569 8.97463C7.1347 8.58364 7.1347 7.95167 7.52569 7.56068C7.91667 7.1697 8.54864 7.1697 8.93963 7.56068L11.9825 10.6036L15.0254 7.56068C15.4164 7.1697 16.0483 7.1697 16.4393 7.56068C16.8303 7.95167 16.8303 8.58364 16.4393 8.97463L13.3964 12.0175L16.4393 15.0604Z" fill="#EE0A0A"/>
</svg>
