<svg width="23" height="23" viewBox="0 0 23 23" fill="none" xmlns="http://www.w3.org/2000/svg">
<g clip-path="url(#clip0_437_975)">
<path d="M14.2076 4.11021H12.3276V0.350342H14.2076V4.11021ZM10.4477 0.350342H8.56778V4.11021H10.4477V0.350342ZM6.68784 0.350342H4.80791V4.11021H6.68784V0.350342ZM0.0836401 22.9095H18.883V21.0296H0.0836401V22.9095ZM22.6363 12.7043C22.6056 13.6794 22.1955 14.6041 21.4932 15.2813C20.7909 15.9584 19.852 16.3347 18.8764 16.3298H15.9164C15.2385 17.3346 14.4739 18.2782 13.6314 19.1497H5.34087C2.70911 16.377 0.899719 12.9274 0.114659 9.18603C0.0504249 8.80177 0.0710765 8.40811 0.175164 8.03268C0.279251 7.65725 0.464252 7.30915 0.717177 7.01282C0.986115 6.69263 1.32186 6.43517 1.70085 6.2585C2.07985 6.08184 2.49291 5.99024 2.91106 5.99014H16.0565C16.4748 5.99053 16.8879 6.08245 17.2669 6.25944C17.6459 6.43644 17.9816 6.69422 18.2504 7.0147C18.5032 7.31073 18.6882 7.65848 18.7925 8.03356C18.8967 8.40865 18.9177 8.80199 18.8538 9.18603C18.8209 9.37402 18.7777 9.56201 18.7382 9.75001H18.8764C21.1972 9.75001 22.6363 10.8827 22.6363 12.7043ZM20.7563 12.7043C20.7563 11.9918 20.1256 11.6299 18.8764 11.6299H18.2306C17.9066 12.6006 17.5049 13.5437 17.0294 14.4498H18.8764C19.3536 14.4549 19.8146 14.2767 20.1644 13.9519C20.5142 13.6272 20.726 13.1806 20.7563 12.7043Z" fill="#ECEAEA"/>
</g>
<g clip-path="url(#clip1_437_975)">
<path d="M13.3471 9.6394C10.4202 9.6394 8.03906 12.0205 8.03906 14.9475C8.03906 17.8744 10.4202 20.2555 13.3471 20.2555C16.2741 20.2555 18.6552 17.8744 18.6552 14.9475C18.6552 12.0205 16.2741 9.6394 13.3471 9.6394ZM14.6741 16.7168C14.9187 16.7168 15.1165 16.9145 15.1165 17.1591C15.1165 17.4037 14.9187 17.6015 14.6741 17.6015H12.0201C11.7759 17.6015 11.5778 17.4037 11.5778 17.1591C11.5778 16.9145 11.7759 16.7168 12.0201 16.7168H12.9048V13.1781H12.0201C11.7759 13.1781 11.5778 12.9799 11.5778 12.7358C11.5778 12.4916 11.7759 12.2934 12.0201 12.2934H14.6741C14.9187 12.2934 15.1165 12.4916 15.1165 12.7358C15.1165 12.9799 14.9187 13.1781 14.6741 13.1781H13.7894V16.7168H14.6741Z" fill="#7360FF"/>
</g>
<defs>
<clipPath id="clip0_437_975">
<rect width="22.5592" height="22.5592" fill="white" transform="translate(0.078125 0.350342)"/>
</clipPath>
<clipPath id="clip1_437_975">
<rect width="10.6161" height="10.6161" fill="white" transform="translate(8.03906 9.6394)"/>
</clipPath>
</defs>
</svg>
