<svg width="24" height="23" viewBox="0 0 24 23" fill="none" xmlns="http://www.w3.org/2000/svg">
<path d="M11.2264 12.2196H3.70662C2.14909 12.2196 0.886719 13.4819 0.886719 15.0395V22.5592H11.2264V12.2196ZM4.1766 16.9194V15.0395H7.93647V16.9194H4.1766ZM20.626 12.2196H13.1063V22.5592H23.4459V15.0395C23.4459 13.4819 22.1835 12.2196 20.626 12.2196ZM20.156 16.9194H16.3962V15.0395H20.156V16.9194ZM14.9862 0H9.34642C7.79171 0 6.52652 1.2652 6.52652 2.8199V10.3396H17.8061V2.8199C17.8061 1.2652 16.5409 0 14.9862 0ZM14.0462 4.69983H10.2864V2.8199H14.0462V4.69983Z" fill="#FF8A1F"/>
</svg>
