<svg width="22" height="22" viewBox="0 0 22 22" fill="none" xmlns="http://www.w3.org/2000/svg">
<g clip-path="url(#clip0_185_1002)">
<path d="M15.5846 0H6.41797V5.5H15.5846V0Z" fill="#4B5056"/>
<path d="M11.0013 14.6667C12.0138 14.6667 12.8346 13.8459 12.8346 12.8333C12.8346 11.8208 12.0138 11 11.0013 11C9.98878 11 9.16797 11.8208 9.16797 12.8333C9.16797 13.8459 9.98878 14.6667 11.0013 14.6667Z" fill="#4B5056"/>
<path d="M17.4167 0V7.33333H4.58333V0H2.75C2.02065 0 1.32118 0.289731 0.805456 0.805456C0.289731 1.32118 0 2.02065 0 2.75L0 22H22V4.58333L17.4167 0ZM11 16.5C10.2748 16.5 9.56589 16.285 8.96291 15.8821C8.35993 15.4792 7.88996 14.9065 7.61244 14.2365C7.33492 13.5665 7.26231 12.8293 7.40379 12.118C7.54527 11.4067 7.89448 10.7534 8.40728 10.2406C8.92007 9.72782 9.57341 9.3786 10.2847 9.23712C10.9959 9.09564 11.7332 9.16825 12.4032 9.44578C13.0732 9.7233 13.6458 10.1933 14.0487 10.7962C14.4516 11.3992 14.6667 12.1081 14.6667 12.8333C14.6667 13.8058 14.2804 14.7384 13.5927 15.4261C12.9051 16.1137 11.9725 16.5 11 16.5Z" fill="#4B5056"/>
</g>
<defs>
<clipPath id="clip0_185_1002">
<rect width="22" height="22" fill="white"/>
</clipPath>
</defs>
</svg>
