<svg width="22" height="23" viewBox="0 0 22 23" fill="none" xmlns="http://www.w3.org/2000/svg">
<path d="M21.6181 15.5116C21.7619 15.1208 21.6406 14.6851 21.3306 14.4065L19.3855 12.6366C19.4349 12.2638 19.4619 11.8819 19.4619 11.4956C19.4619 11.1093 19.4349 10.7274 19.3855 10.3546L21.3306 8.58467C21.6406 8.30615 21.7619 7.87041 21.6181 7.47959C21.4204 6.94502 21.1824 6.43291 20.9083 5.93877L20.6972 5.5749C20.4007 5.08076 20.0683 4.61357 19.7044 4.17334C19.4394 3.8499 18.9992 3.74209 18.6038 3.86787L16.1017 4.66299C15.4997 4.20029 14.8349 3.81397 14.1251 3.52197L13.5636 0.956936C13.4738 0.548145 13.1593 0.224709 12.746 0.157326C12.1261 0.0540066 11.4882 9.91821e-05 10.8369 9.91821e-05C10.1855 9.91821e-05 9.54759 0.0540066 8.92767 0.157326C8.51439 0.224709 8.19994 0.548145 8.11009 0.956936L7.54857 3.52197C6.83881 3.81397 6.17396 4.20029 5.57201 4.66299L3.07435 3.86338C2.67904 3.7376 2.23881 3.8499 1.97377 4.16885C1.6099 4.60908 1.27748 5.07627 0.980993 5.57041L0.76986 5.93428C0.495837 6.42842 0.257751 6.94053 0.0600946 7.4751C-0.0836554 7.86592 0.0376336 8.30166 0.347595 8.58018L2.29271 10.3501C2.2433 10.7274 2.21634 11.1093 2.21634 11.4956C2.21634 11.8819 2.2433 12.2638 2.29271 12.6366L0.347595 14.4065C0.0376336 14.6851 -0.0836554 15.1208 0.0600946 15.5116C0.257751 16.0462 0.495837 16.5583 0.76986 17.0524L0.980993 17.4163C1.27748 17.9104 1.6099 18.3776 1.97377 18.8179C2.23881 19.1413 2.67904 19.2491 3.07435 19.1233L5.5765 18.3282C6.17845 18.7909 6.8433 19.1772 7.55306 19.4692L8.11459 22.0343C8.20443 22.4431 8.51888 22.7665 8.93217 22.8339C9.55209 22.9417 10.19 22.9956 10.8413 22.9956C11.4927 22.9956 12.1306 22.9417 12.7505 22.8384C13.1638 22.771 13.4783 22.4476 13.5681 22.0388L14.1296 19.4737C14.8394 19.1817 15.5042 18.7954 16.1062 18.3327L18.6083 19.1278C19.0036 19.2536 19.4439 19.1413 19.7089 18.8224C20.0728 18.3821 20.4052 17.9149 20.7017 17.4208L20.9128 17.0569C21.1869 16.5628 21.4249 16.0507 21.6226 15.5161L21.6181 15.5116ZM10.8413 7.90186C11.7945 7.90186 12.7086 8.28048 13.3825 8.95444C14.0565 9.6284 14.4351 10.5425 14.4351 11.4956C14.4351 12.4487 14.0565 13.3628 13.3825 14.0368C12.7086 14.7107 11.7945 15.0894 10.8413 15.0894C9.88822 15.0894 8.97414 14.7107 8.30018 14.0368C7.62622 13.3628 7.24759 12.4487 7.24759 11.4956C7.24759 10.5425 7.62622 9.6284 8.30018 8.95444C8.97414 8.28048 9.88822 7.90186 10.8413 7.90186Z" fill="#454649"/>
</svg>
