<svg width="21" height="23" viewBox="0 0 21 23" fill="none" xmlns="http://www.w3.org/2000/svg">
<g clip-path="url(#clip0_437_976)">
<path d="M14.875 0.512695V4.37495H18.7372L14.875 0.512695Z" fill="#ECEAEA"/>
<path d="M13.125 6.125V0H4.375C3.67881 0 3.01113 0.276562 2.51884 0.768845C2.02656 1.26113 1.75 1.92881 1.75 2.625V21H19.25V6.125H13.125Z" fill="#ECEAEA"/>
</g>
<path d="M16 13C13.2429 13 11 15.2429 11 18C11 20.7571 13.2429 23 16 23C18.7571 23 21 20.7571 21 18C21 15.2429 18.7571 13 16 13ZM17.9792 16.5417H16.4167V20.2917C16.4167 20.5221 16.23 20.7083 16 20.7083C15.77 20.7083 15.5833 20.5221 15.5833 20.2917V16.5417H14.0208C13.7908 16.5417 13.6042 16.3554 13.6042 16.125C13.6042 15.8946 13.7908 15.7083 14.0208 15.7083H17.9792C18.2092 15.7083 18.3958 15.8946 18.3958 16.125C18.3958 16.3554 18.2092 16.5417 17.9792 16.5417Z" fill="#4B5056"/>
<defs>
<clipPath id="clip0_437_976">
<rect width="21" height="21" fill="white"/>
</clipPath>
</defs>
</svg>
