<svg width="23" height="23" viewBox="0 0 23 23" fill="none" xmlns="http://www.w3.org/2000/svg">
<g clip-path="url(#clip0_185_997)">
<path d="M11.5 0C8.45347 0.0106061 5.53494 1.22646 3.38196 3.38196L0.958333 0.958333V6.62113C0.958207 6.75846 0.985165 6.89448 1.03766 7.02139C1.09016 7.14829 1.16717 7.2636 1.26428 7.36072C1.3614 7.45783 1.47671 7.53484 1.60361 7.58734C1.73052 7.63984 1.86654 7.66679 2.00388 7.66667H7.66667L5.41171 5.41171C6.82357 4.00665 8.67889 3.13454 10.6616 2.94392C12.6443 2.75331 14.6318 3.25599 16.2855 4.36633C17.9392 5.47668 19.1568 7.126 19.7309 9.03334C20.3049 10.9407 20.2 12.9881 19.4339 14.8267C18.6678 16.6654 17.288 18.1816 15.5295 19.117C13.7709 20.0525 11.7425 20.3493 9.78961 19.957C7.83676 19.5646 6.08033 18.5074 4.81953 16.9654C3.55872 15.4233 2.87152 13.4919 2.875 11.5H0C0 13.7745 0.674463 15.9979 1.9381 17.8891C3.20174 19.7802 4.99779 21.2542 7.09914 22.1246C9.20049 22.995 11.5128 23.2228 13.7435 22.779C15.9743 22.3353 18.0234 21.24 19.6317 19.6317C21.24 18.0234 22.3353 15.9743 22.779 13.7435C23.2228 11.5128 22.995 9.20049 22.1246 7.09914C21.2542 4.99779 19.7802 3.20174 17.8891 1.9381C15.9979 0.674463 13.7745 0 11.5 0Z" fill="#4B5056"/>
<path d="M9.58203 6.70825V13.0534L12.8777 16.35L14.9113 14.3165L12.457 11.8631V6.70825H9.58203Z" fill="#4B5056"/>
</g>
<defs>
<clipPath id="clip0_185_997">
<rect width="23" height="23" fill="white"/>
</clipPath>
</defs>
</svg>
