<svg width="23" height="23" viewBox="0 0 23 23" fill="none" xmlns="http://www.w3.org/2000/svg">
<path d="M14.2115 3.93491H12.3315V0.175049H14.2115V3.93491ZM10.4516 0.175049H8.57168V3.93491H10.4516V0.175049ZM6.69175 0.175049H4.81182V3.93491H6.69175V0.175049ZM0.0875463 22.7342H18.8869V20.8543H0.0875463V22.7342ZM22.6402 12.529C22.6095 13.5041 22.1994 14.4288 21.4971 15.106C20.7948 15.7832 19.8559 16.1594 18.8803 16.1545H15.9203C15.2424 17.1594 14.4778 18.1029 13.6353 18.9744H5.34478C2.71302 16.2017 0.903625 12.7521 0.118565 9.01073C0.0543312 8.62647 0.0749827 8.23281 0.17907 7.85738C0.283157 7.48195 0.468158 7.13386 0.721084 6.83753C0.990021 6.51734 1.32577 6.25988 1.70476 6.08321C2.08375 5.90654 2.49682 5.81495 2.91497 5.81485H16.0604C16.4787 5.81524 16.8918 5.90716 17.2708 6.08415C17.6498 6.26115 17.9855 6.51893 18.2543 6.83941C18.5071 7.13544 18.6921 7.48319 18.7964 7.85827C18.9006 8.23335 18.9216 8.6267 18.8577 9.01073C18.8248 9.19873 18.7816 9.38672 18.7421 9.57471H18.8803C21.2011 9.57471 22.6402 10.7074 22.6402 12.529ZM20.7602 12.529C20.7602 11.8165 20.1295 11.4546 18.8803 11.4546H18.2345C17.9105 12.4254 17.5088 13.3684 17.0333 14.2745H18.8803C19.3575 14.2796 19.8186 14.1014 20.1683 13.7766C20.5181 13.4519 20.7299 13.0053 20.7602 12.529Z" fill="#D92B2B"/>
</svg>
